<?xml version="1.0" encoding="UTF-8" standalone="no"?>
<svg
   width="1039.6949"
   height="926.19373"
   viewBox="0 0 1039.6949 926.19373"
   fill="none"
   version="1.1"
   id="svg1"
   sodipodi:docname="vector.svg"
   xmlns:inkscape="http://www.inkscape.org/namespaces/inkscape"
   xmlns:sodipodi="http://sodipodi.sourceforge.net/DTD/sodipodi-0.dtd"
   xmlns="http://www.w3.org/2000/svg"
   xmlns:svg="http://www.w3.org/2000/svg">
  <defs
     id="defs1" />
  <sodipodi:namedview
     id="namedview1"
     pagecolor="#ffffff"
     bordercolor="#000000"
     borderopacity="0.25"
     inkscape:showpageshadow="2"
     inkscape:pageopacity="0.0"
     inkscape:pagecheckerboard="0"
     inkscape:deskcolor="#d1d1d1"
     showguides="true">
    <sodipodi:guide
       position="1198.8967,949.94514"
       orientation="0,-1"
       id="guide2"
       inkscape:locked="false" />
  </sodipodi:namedview>
  <path
     d="M 711.28802,0.05050474 C 700.1079,-0.05627574 688.89608,0.00598505 677.6513,0.23995787 666.40652,0.47393064 655.12871,0.87812234 643.81927,1.4528485 c -11.30944,0.5747261 -22.65129,1.3208487 -34.02539,2.2363281 -11.3741,0.9154794 -22.77999,2.0015798 -34.21875,3.2578125 -11.43876,1.2562326 -22.91064,2.6823106 -34.41406,4.2792969 -11.50337,1.596992 -22.79512,3.347244 -33.875,5.251953 -11.07989,1.90471 -21.94711,3.963355 -32.60352,6.175782 -10.65641,2.212426 -21.10105,4.579465 -31.33398,7.099609 -10.23294,2.520144 -20.255,5.193623 -30.06446,8.021484 -9.80945,2.827862 -19.40699,5.809733 -28.79297,8.945313 -9.38597,3.135579 -18.56094,6.425843 -27.52343,9.86914 -8.9625,3.443298 -17.71294,7.04 -26.25196,10.791016 -8.53901,3.751016 -16.86688,7.656109 -24.98242,11.714844 -8.11554,4.058735 -16.01888,8.270265 -23.71094,12.636719 -7.69205,4.366454 -15.17282,8.886364 -22.4414,13.560544 -7.26858,4.67417 -14.32483,9.50248 -21.16992,14.48437 -6.8451,4.9819 -13.47878,10.11859 -19.90039,15.40821 -6.42162,5.28961 -12.63078,10.73274 -18.62891,16.33007 -5.99813,5.59734 -11.78473,11.34886 -17.35938,17.25391 -5.57465,5.90505 -10.93867,11.96301 -16.08984,18.17578 -5.15117,6.21277 -10.09068,12.58107 -14.81836,19.10156 -9.45536,13.04112 -18.49214,26.09303 -27.11328,39.15821 -8.62114,13.06517 -16.82637,26.14317 -24.61328,39.23242 -7.786915,13.08924 -15.156687,26.18942 -22.109376,39.30273 -6.95269,13.11332 -13.487003,26.23956 -19.605469,39.37696 -6.118466,13.13739 -11.821224,26.28774 -17.105469,39.44921 -5.284244,13.16148 -10.151538,26.33398 -14.601562,39.51954 -4.450025,13.18555 -8.481851,26.3841 -12.097656,39.59375 -3.615806,13.20964 -6.8141168,26.43032 -9.595704,39.66406 -1.3907911,6.61693 -2.4790355,13.14168 -3.2617188,19.57422 -0.78268327,6.43253 -1.26097119,12.77335 -1.43554682,19.02148 -0.17457563,6.24814 -0.0448601,12.40306 0.38867188,18.4668 0.43353197,6.06374 1.17125104,12.03667 2.21289064,17.91601 1.0416395,5.87935 2.3873624,11.66639 4.0371093,17.36133 1.649747,5.69495 3.6034738,11.29805 5.8613288,16.8086 2.257854,5.51055 4.819585,10.92775 7.685547,16.2539 2.865961,5.32616 6.035697,10.56137 9.509765,15.70313 3.474069,5.14176 7.253762,10.19107 11.335938,15.14843 4.082176,4.95737 8.46792,9.82274 13.158203,14.59571 4.690283,4.77297 9.684032,9.45243 14.982422,14.04101 5.298389,4.58858 10.900144,9.08605 16.80664,13.49024 5.906497,4.40419 12.11821,8.71575 18.632816,12.93554 6.5146,4.2198 13.33237,8.34741 20.45508,12.38282 7.1227,4.0354 14.55043,7.97906 22.28124,11.83008 7.73082,3.85101 15.7646,7.60876 24.10352,11.27539 16.67786,7.33324 33.40578,14.47107 50.18164,21.41406 16.77586,6.94299 33.60075,13.6914 50.47461,20.24414 16.87386,6.55274 33.79572,12.91172 50.76758,19.07422 16.97186,6.16249 33.99459,12.12814 51.06445,17.90039 17.06986,5.77224 34.18761,11.35043 51.35547,16.73242 17.16786,5.382 34.38453,10.5688 51.65039,15.56055 17.26586,4.99174 34.58146,9.78913 51.94531,14.39062 17.36386,4.6015 34.77643,9.00751 52.23828,13.21875 8.73093,2.10563 17.44488,4.03991 26.14063,5.80469 8.69575,1.76478 17.37263,3.35927 26.0332,4.7832 8.66057,1.42394 17.3043,2.67863 25.92969,3.76172 8.62539,1.08309 17.23401,1.99408 25.82422,2.73633 8.59021,0.74225 17.16176,1.3154 25.7168,1.7168 8.55503,0.4014 17.09342,0.63085 25.61328,0.6914 8.51986,0.0606 17.02117,-0.0478 25.50586,-0.32812 8.48468,-0.28029 16.95283,-0.73238 25.40234,-1.35352 8.44951,-0.62114 16.88059,-1.41106 25.29492,-2.37304 8.41433,-0.96199 16.81225,-2.09561 25.19141,-3.39844 8.37916,-1.30284 16.74,-2.77624 25.08398,-4.41992 8.34399,-1.64369 16.66971,-3.45688 24.97852,-5.44141 8.30881,-1.98453 16.60136,-4.13946 24.875,-6.46484 8.27363,-2.32539 16.52912,-4.82205 24.76758,-7.48829 8.23846,-2.66623 16.45882,-5.50268 24.66211,-8.50976 8.20329,-3.00708 16.38852,-6.18527 24.55664,-9.5332 8.16786,-3.34794 16.17369,-6.77376 24.01569,-10.2793 7.8419,-3.50554 21.383,-9.05333 28.8991,-12.71649 L 1039.0995,51.396853 C 1028.5012,48.223293 984.06613,38.15675 973.40325,35.323942 962.74038,32.491135 952.0468,29.829668 941.31927,27.337614 930.59174,24.845561 919.8302,22.524071 909.03802,20.372771 898.24584,18.22147 887.4222,16.239958 876.56536,14.429411 865.70853,12.618864 854.81888,10.979283 843.89739,9.5094887 832.9759,8.0396953 822.02221,6.740092 811.03607,5.6110516 800.04992,4.4820111 789.03218,3.5223856 777.98138,2.7340985 766.93058,1.9458113 755.84684,1.3281166 744.73138,0.88058284 733.61592,0.43304904 722.46814,0.15728522 711.28802,0.05050474 Z"
     style="fill:#e1a35a"
     id="path2"
     sodipodi:nodetypes="ssssssssssssssssssssscsssssssssssssssssssssssssssssssssssssssssssssssssccsssssssss"
     inkscape:export-filename="weird.png"
     inkscape:export-xdpi="94.777237"
     inkscape:export-ydpi="94.777237" />
</svg>
