<?xml version="1.0" encoding="UTF-8" standalone="no"?>
<svg
   width="643.54919"
   height="660.41797"
   viewBox="0 0 643.54919 660.41797"
   fill="none"
   version="1.1"
   id="svg2"
   sodipodi:docname="Clip-path-group-1.svg"
   inkscape:export-filename="weird2.svg"
   inkscape:export-xdpi="96"
   inkscape:export-ydpi="96"
   xmlns:inkscape="http://www.inkscape.org/namespaces/inkscape"
   xmlns:sodipodi="http://sodipodi.sourceforge.net/DTD/sodipodi-0.dtd"
   xmlns="http://www.w3.org/2000/svg"
   xmlns:svg="http://www.w3.org/2000/svg">
  <defs
     id="defs2" />
  <sodipodi:namedview
     id="namedview2"
     pagecolor="#ffffff"
     bordercolor="#000000"
     borderopacity="0.25"
     inkscape:showpageshadow="2"
     inkscape:pageopacity="0.0"
     inkscape:pagecheckerboard="0"
     inkscape:deskcolor="#d1d1d1"
     inkscape:zoom="2.3129445"
     inkscape:cx="782.76845"
     inkscape:cy="236.27891"
     inkscape:window-width="1920"
     inkscape:window-height="1009"
     inkscape:window-x="-8"
     inkscape:window-y="-8"
     inkscape:window-maximized="1"
     inkscape:current-layer="g2" />
  <mask
     id="mask0_13_38"
     maskUnits="userSpaceOnUse"
     x="99"
     y="20"
     width="705"
     height="662">
    <path
       d="M 691.72,44.0793 C 802.096,81.6546 830.432,165.233 776.728,294.816 723.023,424.398 634.077,530.792 509.89,613.998 385.703,697.204 283.264,703.3 202.573,632.287 121.882,561.275 88.5992,463.026 102.725,337.541 116.851,212.056 190.954,122.381 325.035,68.5152 459.116,14.6493 581.344,6.50401 691.72,44.0793 Z"
       fill="#ffffff"
       id="path1" />
  </mask>
  <g
     mask="url(#mask0_13_38)"
     id="g2"
     transform="translate(-99.567615,-20.918726)">
    <path
       d="m 540.04599,21.015625 c -7.54666,0.151889 -15.14004,0.481154 -22.77929,0.990234 -7.63926,0.509081 -15.32479,1.198181 -23.05664,2.064453 -7.73186,0.866273 -15.50953,1.911302 -23.33399,3.134766 -7.82445,1.223464 -15.69623,2.624422 -23.61328,4.205078 -7.91705,1.580656 -15.87902,3.339496 -23.88867,5.277344 -8.00965,1.937848 -16.06572,4.05457 -24.16797,6.349609 -8.10225,2.29504 -16.25241,4.769644 -24.44727,7.421875 -8.19485,2.652232 -16.4352,5.482764 -24.72265,8.492188 -8.28746,3.009423 -16.6219,6.197838 -25.00196,9.564453 -8.38005,3.366609 -16.52602,6.873163 -24.4375,10.519531 -7.91147,3.646369 -15.58835,7.431294 -23.03125,11.357422 -7.4429,3.926128 -14.65067,7.993331 -21.625,12.199222 -6.97432,4.20589 -13.71495,8.55146 -20.2207,13.03711 -6.50575,4.48564 -12.77728,9.11154 -18.81445,13.87695 -6.03717,4.76541 -11.83961,9.66967 -17.4082,14.71484 -5.5686,5.04517 -10.90389,10.23171 -16.00391,15.55664 -5.10002,5.32494 -9.96426,10.78984 -14.5957,16.39453 -4.63145,5.6047 -9.02854,11.34797 -13.19141,17.23243 -4.16288,5.88445 -8.09281,11.91 -11.78711,18.07422 -3.6943,6.16422 -7.15318,12.46812 -10.37891,18.9121 -3.22573,6.44399 -6.21745,13.02821 -8.97461,19.75196 -2.75715,6.72374 -5.27977,13.58633 -7.56835,20.58984 -2.28859,7.00351 -4.34405,14.14641 -6.16407,21.42969 -1.82001,7.28327 -3.40441,14.70649 -4.75586,22.26953 -1.35144,7.56304 -2.46869,15.26657 -3.35156,23.10938 -0.88286,7.8428 -1.58127,15.57896 -2.09375,23.20898 -0.51248,7.63002 -0.840318,15.15307 -0.982421,22.57031 -0.142103,7.41724 -0.09937,14.72914 0.128906,21.9336 0.228275,7.20446 0.643535,14.30324 1.242185,21.29492 0.59866,6.99167 1.38253,13.8754 2.35157,20.65429 0.96903,6.7789 2.12152,13.45147 3.46093,20.01758 1.33941,6.56611 2.86443,13.02558 4.57422,19.37891 1.70979,6.35332 3.60538,12.60165 5.68555,18.74219 2.08016,6.14054 4.34633,12.1738 6.79687,18.10156 2.45055,5.92775 5.08533,11.74987 7.90625,17.46484 2.82093,5.71497 5.82628,11.32399 9.01758,16.82617 3.1913,5.50219 6.56918,10.89811 10.13086,16.1875 3.56168,5.2894 7.30818,10.47222 11.24024,15.54883 3.93205,5.07661 8.04913,10.04634 12.35156,14.91016 4.30243,4.86382 8.79008,9.62045 13.46289,14.27148 4.6728,4.65104 9.53103,9.19652 14.57422,13.63477 5.04318,4.43831 10.17167,8.57621 15.38476,12.41211 5.21309,3.83589 10.50959,7.37003 15.89258,10.60351 5.383,3.23348 10.8514,6.16581 16.4043,8.79688 5.5529,2.63106 11.19125,4.95963 16.91406,6.98828 5.72281,2.02865 11.53112,3.75736 17.42383,5.18359 5.89271,1.42624 11.86902,2.55119 17.93164,3.375 6.06262,0.82382 12.21083,1.34696 18.44336,1.56836 6.23252,0.22141 12.55069,0.14078 18.95312,-0.24023 6.40243,-0.38102 12.8886,-1.06344 19.46094,-2.04688 6.57234,-0.98343 13.23041,-2.26766 19.97266,-3.85351 6.74224,-1.58585 13.57027,-3.47384 20.48242,-5.66211 6.91215,-2.18827 13.90818,-4.67611 20.99023,-7.4668 7.08206,-2.79069 14.24999,-5.88423 21.50196,-9.27734 7.25196,-3.39311 14.58789,-7.0865 22.00976,-11.08203 7.42187,-3.99553 14.92971,-8.29268 22.52149,-12.89063 7.59177,-4.59795 15.26761,-9.49689 23.02929,-14.69726 7.76168,-5.20037 15.38669,-10.49152 22.87305,-15.87305 7.48636,-5.38153 14.83388,-10.85333 22.04492,-16.41602 7.21104,-5.56268 14.28499,-11.2171 21.22071,-16.96093 6.93571,-5.74384 13.73413,-11.57696 20.39453,-17.50196 6.6604,-5.92499 13.18328,-11.94072 19.56836,-18.04687 6.38508,-6.10615 12.63242,-12.30254 18.74218,-18.58985 6.10976,-6.2873 12.08158,-12.6663 17.91602,-19.13476 5.83444,-6.46846 11.53072,-13.02616 17.08984,-19.67578 5.55912,-6.64962 10.98183,-13.38993 16.26563,-20.22071 5.2838,-6.83077 10.42902,-13.75369 15.4375,-20.76562 5.00848,-7.01193 9.88012,-14.11355 14.61328,-21.30664 4.73316,-7.19309 9.32732,-14.47732 13.78516,-21.85156 4.45783,-7.37425 12.92996,-13.75877 12.96093,-22.39453 0.80247,-223.72961 -0.24869,-223.8427 0.29807,-298.016008 0,0 -25.38816,-12.871846 -31.64571,-15.5797 -6.25756,-2.707853 -12.83589,-5.23553 -19.73438,-7.583984 -6.89849,-2.348453 -13.8429,-4.518504 -20.83398,-6.509766 -6.99109,-1.991261 -14.0296,-3.805383 -21.11328,-5.439453 -7.08369,-1.63407 -14.2124,-3.088356 -21.38868,-4.365234 -7.17627,-1.276878 -14.39909,-2.375235 -21.66796,-3.294922 -7.26888,-0.919686 -14.58385,-1.660161 -21.94532,-2.222656 -7.36146,-0.562495 -14.77054,-0.947041 -22.22461,-1.152344 -7.45406,-0.205303 -14.95334,-0.231967 -22.5,-0.08008 z"
       style="fill:#e1a35a"
       id="path3"
       sodipodi:nodetypes="ssssssssssssssssssssssssssssssssssssssssssssssssssssssssssssssssssssssssssssssssss" />
  </g>
</svg>
