<svg width="1087" height="812" viewBox="0 0 1087 812" fill="none" xmlns="http://www.w3.org/2000/svg">
<mask id="mask0_13_32" style="mask-type:luminance" maskUnits="userSpaceOnUse" x="160" y="80" width="834" height="713">
<path d="M889.913 137.488C1007.22 198.713 1024.53 297.369 941.849 433.456C859.169 569.543 740.974 673.527 587.264 745.409C433.553 817.291 317.59 806.428 239.375 712.822C161.159 619.215 140.838 503.247 178.412 364.917C215.986 226.588 314.637 138.794 474.366 101.536C634.094 64.2782 772.61 76.262 889.913 137.488Z" fill="white"/>
</mask>
<g mask="url(#mask0_13_32)">
<path d="M889.913 137.488C1007.22 198.713 1024.53 297.369 941.849 433.456C859.169 569.543 740.974 673.527 587.264 745.409C433.553 817.291 317.59 806.428 239.375 712.822C161.159 619.215 140.838 503.247 178.412 364.917C215.986 226.588 314.637 138.794 474.366 101.536C634.094 64.2782 772.61 76.262 889.913 137.488Z" fill="#FFD17D"/>
</g>
</svg>
